<svg xmlns="http://www.w3.org/2000/svg" viewBox="0 0 118.77 65.58"><defs><style>.cls-1,.cls-2{fill:#c11600;}.cls-2{stroke:#c11600;stroke-miterlimit:10;stroke-width:3px;}</style></defs><title>Ресурс 1</title><g id="Слой_2" data-name="Слой 2"><g id="Слой_1-2" data-name="Слой 1"><path class="cls-1" d="M17.86,12.58a24.09,24.09,0,0,1,6.57.83,13.58,13.58,0,0,1,5,2.51,11.22,11.22,0,0,1,3.17,4.2,14.25,14.25,0,0,1,1.11,5.82,14.41,14.41,0,0,1-1.11,5.88A11,11,0,0,1,29.39,36a14.22,14.22,0,0,1-5,2.51,23.31,23.31,0,0,1-6.57.85h-7.3V51A1.57,1.57,0,0,1,9,52.54H1.54a1.44,1.44,0,0,1-1.08-.46A1.44,1.44,0,0,1,0,51V14.13A1.48,1.48,0,0,1,.46,13a1.48,1.48,0,0,1,1.08-.46Zm-7.3,17.87h7a6.93,6.93,0,0,0,4-1.06,3.86,3.86,0,0,0,1.57-3.45,3.86,3.86,0,0,0-1.57-3.45,6.93,6.93,0,0,0-4-1.06h-7Z"/><path class="cls-1" d="M55.85,42.46a4.83,4.83,0,0,1-.77-.94L49.71,32.1V51a1.55,1.55,0,0,1-1.54,1.54H40.69A1.57,1.57,0,0,1,39.15,51V14.13a1.57,1.57,0,0,1,1.54-1.55h6.62a2.2,2.2,0,0,1,1.72.63,7.59,7.59,0,0,1,.74.92L59,29.94l9.24-15.81a7.59,7.59,0,0,1,.74-.92,2.2,2.2,0,0,1,1.72-.63h6.62a1.5,1.5,0,0,1,1.08.46,1.52,1.52,0,0,1,.46,1.09V51a1.48,1.48,0,0,1-.46,1.08,1.46,1.46,0,0,1-1.08.46H69.86A1.55,1.55,0,0,1,68.32,51V32.1L63,41.52a4.83,4.83,0,0,1-.77.94,1.78,1.78,0,0,1-1.34.49H57.19A1.78,1.78,0,0,1,55.85,42.46Z"/><path class="cls-1" d="M117.23,43.41A1.54,1.54,0,0,1,118.77,45v6a1.55,1.55,0,0,1-1.54,1.54H86.64A1.57,1.57,0,0,1,85.1,51V45.23A2.34,2.34,0,0,1,85.38,44a4.44,4.44,0,0,1,.57-.75l18.27-21.51h-17a1.57,1.57,0,0,1-1.54-1.54v-6a1.57,1.57,0,0,1,1.54-1.55h29.45a1.55,1.55,0,0,1,1.54,1.55v5.76a2.69,2.69,0,0,1-.74,1.88L99.2,43.41ZM99.14,9.73a2.34,2.34,0,0,1-1.09-.23,3.73,3.73,0,0,1-1-.85l-5.82-6.4a1,1,0,0,1-.29-.74A.8.8,0,0,1,91.83.6h4.11a2.16,2.16,0,0,1,.92.17l.85.46,4.23,2.45,4.22-2.45L107,.77a2.16,2.16,0,0,1,.92-.17H112a.8.8,0,0,1,.91.91,1,1,0,0,1-.28.74l-5.83,6.4a3.73,3.73,0,0,1-1,.85,2.34,2.34,0,0,1-1.09.23Z"/><line class="cls-2" y1="1.5" x2="79.49" y2="1.5"/><line class="cls-2" y1="64.08" x2="118.77" y2="64.08"/></g></g></svg>